<svg xmlns="http://www.w3.org/2000/svg" viewBox="0 0 1024 1024" role="img" aria-label="ArcForge mark">
  <defs>
    <linearGradient id="steel" x1="250" y1="195" x2="760" y2="835" gradientUnits="userSpaceOnUse">
      <stop offset="0" stop-color="#0b5276"/>
      <stop offset="0.46" stop-color="#062f58"/>
      <stop offset="1" stop-color="#06284f"/>
    </linearGradient>
    <linearGradient id="arc" x1="235" y1="705" x2="830" y2="535" gradientUnits="userSpaceOnUse">
      <stop offset="0" stop-color="#78c5dd"/>
      <stop offset="0.48" stop-color="#2f91b4"/>
      <stop offset="1" stop-color="#15779f"/>
    </linearGradient>
  </defs>

  <!-- The angular A is the forged structure; the crossing band is its working arc. -->
  <path
    fill="url(#steel)"
    fill-rule="evenodd"
    d="M170 826 419 222c17-42 52-66 95-66 44 0 79 24 96 66l244 604H681l-51-139H390l-52 139H170Zm269-287h143l-71-194-72 194Z"
  />
  <path
    fill="url(#arc)"
    d="M190 692c130-119 287-177 486-178 56 0 114 6 177 18l-34 126c-62-16-121-25-176-26-145-3-264 34-365 115l-88-55Z"
  />
  <path
    d="M269 686c106-75 231-109 376-105 53 1 108 8 166 21"
    fill="none"
    stroke="#a9deec"
    stroke-width="16"
    stroke-linecap="round"
    opacity="0.72"
  />

  <!-- A compact forge spark remains legible at taskbar and favicon sizes. -->
  <path d="m768 166 24 51 51 24-51 24-24 51-24-51-51-24 51-24 24-51Z" fill="#2f91b4"/>
  <path d="m864 305 11 23 23 11-23 11-11 23-11-23-23-11 23-11 11-23Z" fill="#78c5dd"/>
</svg>
